<?xml version="1.0" encoding="UTF-8"?>
<svg viewBox="0 0 522.85 508.6125" xmlns="http://www.w3.org/2000/svg">
 <defs>
  <linearGradient id="b" x1=".45896" x2=".55597" y1="1.0302" y2=".76604">
   <stop stop-opacity=".1647" offset="0"/>
   <stop stop-color="#fff" stop-opacity="0" offset="1"/>
  </linearGradient>
  <radialGradient id="a" cx=".95629" cy=".46305" r=".46014" gradientTransform="matrix(1 -6.6889e-5 1.4478e-6 1 -3.0052e-7 -3.0258e-8)">
   <stop stop-color="#fff" stop-opacity=".6157" offset="0"/>
   <stop stop-color="#fff" stop-opacity="0" offset="1"/>
  </radialGradient>
 </defs>
 <g transform="translate(1.7456 -448.73)">
  <path d="m476.49 739.21c0 20.584-1.7794 27.359-13.451 52.512-14.785 22.955-30.986 47.578-51.005 67.654s-40.413 38.855-66.737 50.421c-25.034 11.946-54.136 7.385-84.685 7.385s-58.993-2.807-86.12-8.821c-25.416-11.667-51.744-26.038-71.763-46.114s-40.358-42.594-47.416-70.526c-7.6063-27.98-14.515-55.729-14.515-86.364s5.0688-59.236 16.265-85.781 25.647-49.867 45.666-69.942 49.606-39.792 72.076-51.632c32.508-6.8337 52.073-8.2058 82.622-9.8552 55.304 9.7115 57.217 8.5768 90.499 18.46 17.083 8.75 31.372 15.239 46.302 25.425 13.308 11.666 26.615 24.158 37.448 35.824l18.75 32.5 12.128 33.75 10.372 35 4.9999 32.052c0.9572 13.402 0.4787 25.367-1.4359 38.05z" fill="#c50000" fill-rule="evenodd"/>
  <path d="m163.01 594.3c-0.4691-28.784-2.0507-54.625 7.5841-82.045 7.4418-12.132 4.121-7.0503 10.978-15.419 10.518-6.9529 57.323-8.4804 66.317-8.7467 32.584-0.9648 92.877 10.574 127.17 31.108 5.7478 4.3153 16.746 9.8147 22.519 14.176-20.67-0.4133-48.329 6.3434-53.05 6.6534-38.814 15.188-58.202 30.69-85.915 48.463-14.496 11.193-28.362 25.262-42.334 36.787-1.9554 1.613-2.5675 3.1708-16.632 15.731-6.2573 4.8877-11.44 10.621-16.789 14.232-1.7189 0.0191-8.7535-4.583-13.901-8.0979-2.0801-10.833-1.4568-17.386-2.5537-21.048 0 0-1.455-10.78-3.3924-31.794z" fill="#f0de00" fill-rule="evenodd" stroke="#000" stroke-opacity=".5"/>
  <path d="m406.97 541.58c22.887 20.431 26.265 28.31 31.629 38.199 9.6481 13.606 16.415 33.086 22.412 51.444 5.6298 12.916 11.614 31.829 14.034 46.81 3.6716 17.889 3.9926 36.35 3.1069 54.91-0.3329 6.9788-1.2278 17.011-2.7063 23.885-2.3658 1.2453-37.204-12.314-50.121-16.972-21.161-5.7387-40.539-13.223-61.006-18.778-27.5-7.8709-54.714-15.205-81.888-23.583-22.46-6.5282-38.967-8.9763-60.196-16.224-2.6263-0.7917-23.227-2.9458-29.745-5.0733 1.4994-6.2843-1.4051-8.1427-2.5589-13.13-3.8995-11.174-2.2908-5.6341-5.4448-9.3715 4.2918-5.0244 23.498-24.438 28.417-28.768 8.0628-6.81 15.447-13.02 24.172-20.105 15.31-13.563 30.139-24.609 46.496-35.627 6.5657-3.4213 18.295-11.934 24.87-14.382 13.418-6.5312 21.839-11.915 36.34-15.218 8.6068-2.7413 18.576-3.8646 28.718-5.5982 11.188-1.0177 11.117-0.6026 21.567-1.1009l11.905 8.681z" fill="#00bc00" fill-rule="evenodd" stroke="#000" stroke-opacity=".498" stroke-width="1.0172"/>
  <path d="m52.174 630.98c17.216-35.045 22.179-46.162 41.504-71.295 23.741-27.008 72.692-61.393 92.719-64.635-7.3723 7.3786-20.194 19.237-22.524 49.246s6.0916 98.052 6.0916 98.052c-3.4699 0.625-7.7194 2.789-11.338 6.3268-4.565 2.9128-6.919 6.1352-8.4962 9.2602l-97.956-26.955z" fill="#0000c2" fill-rule="evenodd" stroke="#000" stroke-opacity=".5"/>
  <path d="m154.38 687.36c-18.125 18.438-49.375 58.125-57.188 71.25-19.688 24.062-22.422 46.875-27.109 65.625 4.0625 8.75 35.547 50 67.734 65 36.562 22.188 36.955 25.326 90.312 27.188 17.917 1.25 33.88 1.3281 53.281 1.25 2.7951-0.0225-34.531-35-51.719-72.5-13.75-27.5-21.562-53.75-30.312-82.5s-16.562-64.062-18.125-69.062c-1.875 0-9.375 3.125-16.875 0.3125-7.1875-3.125-7.1875-3.4375-10-6.5625z" fill="#e6e6e6" fill-rule="evenodd" stroke="#000" stroke-opacity=".498"/>
  <path transform="matrix(.95719 0 0 .81881 36.498 478.28)" d="m173.44 232.09a31.42 40.637 0 1 0 -62.84 0 31.42 40.637 0 1 0 62.84 0z" fill="#f0de00" fill-opacity=".9741" fill-rule="evenodd" stroke="#000" stroke-opacity=".498"/>
  <path d="m476.49 739.21c0 20.584-1.7794 27.359-13.451 52.512-14.785 22.955-30.986 47.578-51.005 67.654s-40.413 38.855-66.737 50.421c-25.034 11.946-54.136 7.385-84.685 7.385s-58.993-2.807-86.12-8.821c-25.416-11.667-51.744-26.038-71.763-46.114s-40.358-42.594-47.416-70.526c-7.6063-27.98-14.515-55.729-14.515-86.364s5.0688-59.236 16.265-85.781 25.647-49.867 45.666-69.942 49.606-39.792 72.076-51.632c32.508-6.8337 52.073-8.2058 82.622-9.8552 55.304 9.7115 57.217 8.5768 90.499 18.46 17.083 8.75 31.372 15.239 46.302 25.425 13.308 11.666 26.615 24.158 37.448 35.824l18.75 32.5 12.128 33.75 10.372 35 4.9999 32.052c0.9572 13.402 0.4787 25.367-1.4359 38.05z" fill="none" stroke="#000" stroke-width="3.375"/>
  <path transform="matrix(1.36 0 0 1.1495 -18.676 401.53)" d="m173.44 232.09a31.42 40.637 0 1 0 -62.84 0 31.42 40.637 0 1 0 62.84 0z" fill="#f0de00" fill-opacity=".9741" fill-rule="evenodd" stroke="#000" stroke-opacity=".21"/>
  <path d="m476.49 739.21c0 20.584-1.7794 27.359-13.451 52.512-14.785 22.955-30.986 47.578-51.005 67.654s-40.413 38.855-66.737 50.421c-25.034 11.946-54.136 7.385-84.685 7.385s-58.993-2.807-86.12-8.821c-25.416-11.667-51.744-26.038-71.763-46.114s-40.358-42.594-47.416-70.526c-7.6063-27.98-14.515-55.729-14.515-86.364s5.0688-59.236 16.265-85.781 25.647-49.867 45.666-69.942 49.606-39.792 72.076-51.632c32.508-6.8337 52.073-8.2058 82.622-9.8552 55.304 9.7115 57.217 8.5768 90.499 18.46 17.083 8.75 31.372 15.239 46.302 25.425 13.308 11.666 26.615 24.158 37.448 35.824l18.75 32.5 12.128 33.75 10.372 35 4.9999 32.052c0.9572 13.402 0.4787 25.367-1.4359 38.05z" fill="url(#b)" fill-rule="evenodd"/>
  <path transform="matrix(-.4324 -.79282 .748 -.17831 -51.233 934.67)" d="m315.09 586.92a37.037 28.745 0 1 0 -74.074 0 37.037 28.745 0 1 0 74.074 0z" fill="url(#a)" fill-rule="evenodd"/>
 </g>
</svg>
