<?xml version="1.0" encoding="UTF-8"?>
<svg viewBox="0 0 354.33069 354.33069" xmlns="http://www.w3.org/2000/svg">
 <defs>
  <filter id="a">
   <feGaussianBlur stdDeviation="1.95646"/>
  </filter>
 </defs>
 <g transform="translate(2.75 22.148)">
  <path transform="matrix(1.7531 0 0 1.7531 -857.53 -960.91)" d="m543.73 652.66c2.9695-5.0174 9.1132-12.595 13.926-14.54s16.486-3.1743 20.684-6.8605 10.342-9.83 10.444-19.558-4.5054-17.612-12.697-21.81-10.342-7.3725-19.967-8.1916-20.582-1.5359-28.364 4.6078-11.571 13.414-11.264 25.189 19.558 19.66 23.961 24.268c3.1778 3.3256 3.3791 16.998 3.2767 16.895z" filter="url(#a)" opacity=".7"/>
  <path d="m99.289 179.77c5.2057-8.796 15.976-22.079 24.413-25.49s28.901-5.5649 36.261-12.027 18.13-17.233 18.31-34.286-7.8984-30.876-22.259-38.235-18.13-12.925-35.004-14.361-36.081-2.6925-49.724 8.0779-20.284 23.516-19.746 44.159 34.286 34.466 42.005 42.544c5.571 5.8301 5.9238 29.798 5.7443 29.619z" fill="#630" fill-rule="evenodd"/>
  <path d="m91.002 55.339c-7.17 1.1476-13.947 3.5489-19.722 8.108-13.643 10.771-20.261 23.513-19.722 44.156s34.246 34.489 41.965 42.567c2.9282 3.0643 4.4243 11.078 5.1497 18.024 0.61972-6.5112-0.32001-16.827-4.2732-22.954-5.0772-7.8699-26.095-21.559-31.172-38.568s9.8949-33.043 17.257-39.39c5.1814-4.4668 8.4816-8.7868 10.519-11.943z" fill="#402000" fill-rule="evenodd"/>
  <path d="m151.43 67.227-12.052 3.8897c2e-5 0 17.258 10.421 20.051 14.737 2.6635 4.1162 5.5904 24.111 0.76698 35.281-4.2356 9.8088-26.287 22.76-30.679 31.391 9.8018-2.5585 24.456-5.028 30.46-10.299 7.3599-6.4624 18.118-17.187 18.298-34.24s-7.8816-30.879-22.242-38.239c-1.6776-0.85977-3.1755-1.7129-4.6019-2.5201z" fill="#a05a2c" fill-rule="evenodd"/>
  <path d="m101.47 54.462c-5.5512 0.11562-11.043 0.66016-16.216 2.0818-3.1541 4.5322-5.9059 9.4336-4.6566 10.683 1.9746 1.9747 19.936-3.4234 32.323-1.8078s25.872 6.6452 30.898 9.6967 11.661 7.3434 14.353 5.3689c1.1421-0.83765 2.2956-4.0662 3.2322-7.5054-1.6784-1.1954-3.4649-2.2566-5.3688-3.2323-14.361-7.3599-18.133-12.917-35.007-14.353-6.3277-0.5386-12.99-1.068-19.558-0.93134z" fill="#cca466" fill-rule="evenodd"/>
  <path d="m99.289 179.77c5.2057-8.796 15.976-22.079 24.413-25.49s28.901-5.5649 36.261-12.027 18.13-17.233 18.31-34.286-7.8984-30.876-22.259-38.235-18.13-12.925-35.004-14.361-36.081-2.6925-49.724 8.0779-20.284 23.516-19.746 44.159 34.286 34.466 42.005 42.544c5.571 5.8301 5.9238 29.798 5.7443 29.619z" fill="none" stroke="#000" stroke-linejoin="round" stroke-width="2.183"/>
  <path d="m101.47 54.462c-5.5512 0.11562-11.043 0.66016-16.216 2.0818-3.1541 4.5322-5.9059 9.4336-4.6566 10.683 1.9746 1.9747 19.936-3.4234 32.323-1.8078s25.872 6.6452 30.898 9.6967 11.661 7.3434 14.353 5.3689c1.1421-0.83765 2.2956-4.0662 3.2322-7.5054-1.6784-1.1954-3.4649-2.2566-5.3688-3.2323-14.361-7.3599-18.133-12.917-35.007-14.353-6.3277-0.5386-12.99-1.068-19.558-0.93134z" fill="none" stroke="#000" stroke-linejoin="round" stroke-width="1.0915"/>
  <path transform="matrix(1.7531 0 0 1.7531 -803.21 -959.74)" d="m604.71 642.32s-2.1769 6.7727-2.1769 10.159 4.2118 17.124 4.7167 24.067c0.96752 13.304-14.959 24.41-23.946 24.188-9.7962-0.24188-22.737-8.5868-24.43-9.5543s-7.9821-2.7816-9.6753-5.9261c-1.6147-2.9986-2.056-4.3539-3.0235-7.0146s-3.991-7.3774-1.4513-13.304 6.4099-14.634 23.946-16.69 35.919-5.9261 36.04-5.9261z" filter="url(#a)" opacity=".7"/>
  <path d="m260.52 162.79s-3.8164 11.873-3.8164 17.81 7.3836 30.021 8.2688 42.192c1.6961 23.322-26.225 42.793-41.98 42.404-17.174-0.42401-39.86-15.054-42.828-16.75s-13.993-4.8765-16.962-10.389c-2.8306-5.257-3.6043-7.6328-5.3005-12.297s-6.9967-12.933-2.5442-23.322 11.237-25.655 41.98-29.259 62.97-10.389 63.182-10.389z" fill="#630" fill-rule="evenodd"/>
  <path d="m256.92 182.94c-0.96759 3.5817-1.2601 7.4687-1.26 11.45 0 9.753-2.565 32.615-21.859 36.431-15.733 3.1121-24.148 2.3664-36.87-5.4784l-15.34 23.941c5.0483 3.0358 25.345 15.49 41.417 15.887 15.755 0.38897 43.661-19.081 41.965-42.403-0.79604-10.946-6.8426-31.477-8.0532-39.828z" fill="#a05a2c" fill-rule="evenodd"/>
  <path d="m202.24 172.53c-1.6333 0.20742-3.2458 0.46634-4.8758 0.65745-30.743 3.6043-37.567 18.866-42.019 29.255s0.87864 18.674 2.5748 23.338c0.0883 0.2426 0.13554 0.42621 0.21915 0.65726l16.49-11.286c-2.9683-3.1803-8.4144-1.1058-11.012-11.888-1.7897-7.4296 8.9157-19.722 24.817-24.598 5.4129-1.66 9.9861-3.8629 13.806-6.1358z" fill="#402000" fill-rule="evenodd"/>
  <path d="m162.58 207.21c-0.45895-1e-3 -0.87575 0.0561-1.26 0.10884-4.2272 0.58298-5.4304 5.6348-5.6428 13.039 0.82371 2.1061 1.718 3.9714 2.2461 5.4236 1.6962 4.6643 2.4286 7.0146 5.2593 12.272 2.9683 5.5125 14.015 8.7129 16.983 10.409 1.9806 1.1318 12.774 7.9597 24.817 12.546 8.5798 0.24073 10.632-2.5621 12.929-9.8064 2.7563-8.6928-5.9352-20.329-9.7516-23.721s-11.232-5.3063-17.805-9.9708c-6.1618-4.3729-20.892-10.282-27.775-10.299v6.4e-4z" fill="#cca466" fill-rule="evenodd"/>
  <path d="m260.52 162.79s-3.8164 11.873-3.8164 17.81 7.3836 30.021 8.2688 42.192c1.6961 23.322-26.225 42.793-41.98 42.404-17.174-0.42401-39.86-15.054-42.828-16.75s-13.993-4.8765-16.962-10.389c-2.8306-5.257-3.6043-7.6328-5.3005-12.297s-6.9967-12.933-2.5442-23.322 11.237-25.655 41.98-29.259 62.97-10.389 63.182-10.389z" fill="none" stroke="#000" stroke-linejoin="round" stroke-width="2.183"/>
  <path d="m162.58 207.21c-0.45895-1e-3 -0.87575 0.0561-1.26 0.10884-4.2272 0.58298-5.4304 5.6348-5.6428 13.039 0.82371 2.1061 1.718 3.9714 2.2461 5.4236 1.6962 4.6643 2.4286 7.0146 5.2593 12.272 2.9683 5.5125 14.015 8.7129 16.983 10.409 1.9806 1.1318 12.774 7.9597 24.817 12.546 8.5798 0.24073 10.632-2.5621 12.929-9.8064 2.7563-8.6928-5.9352-20.329-9.7516-23.721s-11.232-5.3063-17.805-9.9708c-6.1618-4.3729-20.892-10.282-27.775-10.299v6.4e-4z" fill="none" stroke="#000" stroke-width="1.0915"/>
  <path transform="matrix(1.7531 0 0 1.7531 -713.75 -1156.6)" d="m531.07 692.82s2.6096 2.9773 4.6946 3.8521 6.1442 2.3822 9.5276 2.7349 18.226 0.94441 21.962 4.9428 4.0773 10.652 3.5001 12.747-0.76872 4.2331-0.92743 6.2828 0.35336 7.1601-0.84157 9.0258-8.7504 9.5028-15.275 12.201-15.336 6.9567-18.634 5.8325-15.156-7.4002-17.251-13.033c-1.7637-4.743-2.8369-12.287-0.89091-16.798 4.3005-9.9702 8.5436-11.733 11.256-14.898 3.721-4.3416 2.9995-12.944 2.8784-12.888z" filter="url(#a)" opacity=".7"/>
  <path d="m220.88 54.515s4.5748 5.2196 8.2301 6.7529 10.771 4.1762 16.703 4.7947 31.951 1.6556 38.502 8.6651 7.1479 18.673 6.136 22.346-1.3476 7.4209-1.6259 11.014 0.6195 12.552-1.4753 15.823-15.34 16.659-26.778 21.389-26.885 12.196-32.666 10.225-26.569-12.973-30.242-22.849c-3.0919-8.315-4.9734-21.54-1.5618-29.449 7.5391-17.479 14.978-20.569 19.733-26.118 6.5232-7.6114 5.2583-22.692 5.0462-22.594z" fill="#630" fill-rule="evenodd"/>
  <path d="m277.63 70.929c-5.1882-1.836-12.046-2.9256-18.173-3.6254 8.6693 1.4655 15.65 4.819 15.512 8.8842-0.14129 4.1723-2.956 17.909-3.2342 21.502s-0.24794 18.224-0.24794 18.224l11.413 13.063c2.2255-2.2433 3.8289-4.0958 4.4468-5.0604 2.0948-3.2707 1.2018-12.232 1.48-15.826s0.61101-7.3386 1.6229-11.012 0.41703-15.343-6.1335-22.353c-1.4329-1.5332-3.8044-2.7772-6.6865-3.7971z" fill="#a05a2c" fill-rule="evenodd"/>
  <path d="m214.6 78.441c-4.7531 4.823-11.58 8.7559-18.496 24.79-3.4115 7.9092-1.534 21.133 1.5579 29.448 3.6722 9.8756 24.46 20.874 30.241 22.845 3.6722 1.2518 11.249-1.3054 19.217-4.5487l-18.305-20.636s-7.0974 2.9936-13.347-0.55967-10.761-17.021-11.464-25.555c-0.54297-6.5899 5.3738-16.744 10.596-25.783z" fill="#402000" fill-rule="evenodd"/>
  <path d="m272.51 108.76c-0.46806-0.18216-0.98003-0.33168-1.5441-0.44202-4.5417-0.88934-9.8709 7.6064-17.221 10.334s-19.256 4.4673-24.268 7.5348-12.527 9.0757-7.9429 17.115 7.8109 8.3516 12.624 9.6109c1.433 0.37505 3.9033 0.48997 6.6582 0.47129 6.3336-2.233 13.624-5.5481 19.762-8.0862 8.9196-3.6883 18.912-12.621 23.885-17.937 1.4249-3.2425 2.2431-6.2395 1.249-7.5823-1.9342-2.6124-5.36-3.5684-7.4331-5.5705-1.3973-1.3494-2.4936-4.1726-5.7702-5.4481z" fill="#deaa87" fill-rule="evenodd"/>
  <path d="m272.51 108.76c-0.46806-0.18216-0.98003-0.33168-1.5441-0.44202-4.5417-0.88934-9.8709 7.6064-17.221 10.334s-19.256 4.4673-24.268 7.5348-12.527 9.0757-7.9429 17.115 7.8109 8.3516 12.624 9.6109c1.433 0.37505 3.9033 0.48997 6.6582 0.47129 6.3336-2.233 13.624-5.5481 19.762-8.0862 8.9196-3.6883 18.912-12.621 23.885-17.937 1.4249-3.2425 2.2431-6.2395 1.249-7.5823-1.9342-2.6124-5.36-3.5684-7.4331-5.5705-1.3973-1.3494-2.4936-4.1726-5.7702-5.4481z" fill="#cca466" fill-rule="evenodd"/>
  <path d="m220.88 54.515s4.5748 5.2196 8.2301 6.7529 10.771 4.1762 16.703 4.7947 31.951 1.6556 38.502 8.6651 7.1479 18.673 6.136 22.346-1.3476 7.4209-1.6259 11.014 0.6195 12.552-1.4753 15.823-15.34 16.659-26.778 21.389-26.885 12.196-32.666 10.225-26.569-12.973-30.242-22.849c-3.0919-8.315-4.9734-21.54-1.5618-29.449 7.5391-17.479 14.978-20.569 19.733-26.118 6.5232-7.6114 5.2583-22.692 5.0462-22.594z" fill="none" stroke="#000" stroke-linejoin="round" stroke-width="2.183"/>
  <path d="m272.51 108.76c-0.46806-0.18216-0.98003-0.33168-1.5441-0.44202-4.5417-0.88934-9.8709 7.6064-17.221 10.334s-19.256 4.4673-24.268 7.5348-12.527 9.0757-7.9429 17.115 7.8109 8.3516 12.624 9.6109c1.433 0.37505 3.9033 0.48997 6.6582 0.47129 6.3336-2.233 13.624-5.5481 19.762-8.0862 8.9196-3.6883 18.912-12.621 23.885-17.937 1.4249-3.2425 2.2431-6.2395 1.249-7.5823-1.9342-2.6124-5.36-3.5684-7.4331-5.5705-1.3973-1.3494-2.4936-4.1726-5.7702-5.4481z" fill="none" stroke="#000" stroke-linejoin="round" stroke-width="1.0915"/>
 </g>
</svg>
