<?xml version='1.0' encoding='utf-8'?>
<svg xmlns="http://www.w3.org/2000/svg" width="210mm" height="297mm" viewBox="0 0 210 297" version="1.1" id="svg8013"> <defs id="defs8007"> </defs> <metadata id="metadata8010"> </metadata> <g id="layer1"> <path style="color:#000000;font-style:normal;font-variant:normal;font-weight:normal;font-stretch:normal;font-size:medium;line-height:normal;font-family:sans-serif;font-variant-ligatures:normal;font-variant-position:normal;font-variant-caps:normal;font-variant-numeric:normal;font-variant-alternates:normal;font-feature-settings:normal;text-indent:0;text-align:start;text-decoration:none;text-decoration-line:none;text-decoration-style:solid;text-decoration-color:#000000;letter-spacing:normal;word-spacing:normal;text-transform:none;writing-mode:lr-tb;direction:ltr;text-orientation:mixed;dominant-baseline:auto;baseline-shift:baseline;text-anchor:start;white-space:normal;shape-padding:0;clip-rule:nonzero;display:inline;overflow:visible;visibility:visible;opacity:1;isolation:auto;mix-blend-mode:normal;color-interpolation:sRGB;color-interpolation-filters:linearRGB;solid-color:#000000;solid-opacity:1;vector-effect:none;fill:#741818;fill-opacity:1;fill-rule:evenodd;stroke:none;stroke-width:3.77952766;stroke-linecap:butt;stroke-linejoin:miter;stroke-miterlimit:4;stroke-dasharray:none;stroke-dashoffset:0;stroke-opacity:1;color-rendering:auto;image-rendering:auto;shape-rendering:auto;text-rendering:auto;enable-background:accumulate" d="M 394.50391 603.75781 C 391.53403 609.83253 385.32443 615.83691 385.45312 624.5293 C 385.67423 639.47427 379.64368 655.48404 374.9043 671.61914 C 370.21833 667.81697 365.28001 664.42187 361.07812 662.64258 C 359.43821 661.94817 357.9492 661.46631 356.57422 661.28516 C 355.19923 661.10412 353.70537 661.15443 352.58203 662.31055 C 351.4587 663.46667 351.47976 665.15828 351.94727 666.67969 C 352.41477 668.20106 353.33503 669.90604 354.79492 672.04688 C 356.05864 673.90002 357.55725 678.19996 358.88477 682.79492 C 360.21228 687.38988 361.46859 692.33355 362.77539 696.03125 C 363.42879 697.88012 364.05249 699.40596 364.92383 700.59375 C 365.3595 701.18766 365.86576 701.75799 366.7168 702.0918 C 367.56784 702.42553 368.7502 702.24738 369.47852 701.73828 C 370.93516 700.71989 371.49449 699.19954 372.25391 696.83594 C 373.01332 694.47237 373.76514 691.20522 374.55664 686.75195 C 375.03679 684.0505 376.20567 681.21415 376.91992 678.47656 C 377.70702 679.25348 378.77562 679.95095 379.45117 680.72852 C 384.0385 686.00829 385.45762 691.22244 384.96484 696.66602 C 384.47203 702.10963 381.93272 707.81785 378.24023 713.51953 C 370.85529 724.92286 358.99935 736.14217 351.20117 745.79297 C 348.69095 748.89951 344.84155 750.37094 339.95117 751.01172 C 335.0608 751.6525 329.26403 751.40284 323.42188 751.23242 C 317.57972 751.06197 311.68737 750.97182 306.4082 752.12695 C 305.97726 752.22106 305.62842 752.48622 305.20508 752.59961 C 301.68411 750.25887 298.39356 747.70206 294.32422 745.91797 C 281.45159 740.27442 266.58734 736.83781 255.28711 733.16211 C 245.67952 730.03701 230.21466 724.62579 216.4375 724.01562 C 214.19918 723.9166 212.10151 724.20096 209.9707 724.39258 C 211.25606 720.78986 212.76166 716.89138 213.26367 714.36719 C 214.37889 708.75958 212.6081 703.49154 209.22461 698.94727 C 205.84112 694.40299 200.8703 690.44762 195.21484 686.94336 C 183.90393 679.93475 169.79648 674.74815 159.97266 671.41211 L 158.75586 674.98633 C 168.48878 678.29149 182.40041 683.44972 193.2207 690.1543 C 198.63085 693.50659 203.25564 697.25165 206.19922 701.20508 C 209.14279 705.15854 210.43317 709.18218 209.54883 713.62891 C 209.03525 716.21134 207.42557 720.58348 205.83008 724.83594 C 202.95431 725.44183 200.22037 726.33307 197.82812 727.83203 C 192.65129 731.0757 189.07892 736.74975 188.25977 745.08398 C 187.90736 748.6694 187.88996 751.11956 188.30469 752.95312 C 188.51203 753.86989 188.81739 754.71239 189.57422 755.39648 C 190.33105 756.08062 191.59215 756.2638 192.45312 756.00195 C 194.17507 755.47826 195.16561 754.22429 196.41016 752.5918 C 197.65471 750.95927 198.96922 748.84789 200.32227 746.41992 C 203.2783 741.11554 206.23395 734.54251 208.71484 728.23047 C 211.10573 727.89825 213.57838 727.66993 216.26758 727.78906 C 229.16943 728.36045 244.43131 733.60852 254.11328 736.75781 C 265.67517 740.51863 280.39781 743.94235 292.80273 749.38086 C 295.91375 750.74478 298.16483 752.67405 300.87891 754.30469 C 297.94282 755.76854 295.2792 757.68247 293.48242 760.78516 C 288.19276 769.91933 287.61743 778.10807 289.86523 784.45117 C 292.11304 790.79432 297.08126 795.2037 302.50195 797.06055 C 307.92264 798.91739 314.00005 798.21365 318.0332 794.08398 C 322.06636 789.95432 323.70626 782.77928 321.3418 772.57422 C 319.7199 765.57404 315.53696 760.18861 310.19531 755.66992 C 314.26286 755.13451 318.58838 754.86802 323.3125 755.00586 C 329.11059 755.1748 335.04944 755.46751 340.4375 754.76172 C 345.82556 754.0557 350.80552 752.29494 354.13867 748.16992 C 361.65079 738.87319 373.64675 727.56408 381.41406 715.57031 C 385.29768 709.57345 388.15515 703.36106 388.73047 697.00586 C 389.30579 690.65062 387.46569 684.19264 382.30078 678.24805 C 381.12671 676.89679 379.4653 675.75285 378.06445 674.45508 C 382.807 658.015 389.4796 641.19363 389.23242 624.47852 C 389.13189 617.69921 394.5147 612.33344 397.89844 605.41211 L 394.50391 603.75781 z M 355.37695 664.83008 C 355.39992 664.79176 355.39098 664.84302 355.41992 665.01758 C 355.55808 665.00353 355.75569 664.99293 356.08008 665.03516 C 356.90457 665.14363 358.1569 665.51524 359.60156 666.12695 C 363.68648 667.85673 368.98332 671.60348 373.76758 675.67188 C 372.82376 679.15977 371.45651 682.6041 370.83594 686.0957 C 370.06127 690.45425 369.32738 693.60085 368.6582 695.68359 C 368.18506 697.15617 367.93894 697.39669 367.70703 697.77344 C 367.31418 697.11002 366.83796 696.20144 366.33398 694.77539 C 365.13008 691.36883 363.86887 686.42337 362.51758 681.74609 C 361.16628 677.06878 359.82045 672.71173 357.91797 669.92188 C 356.57893 667.95826 355.83141 666.46057 355.55664 665.56641 C 355.47387 665.29703 355.43935 665.13476 355.41992 665.01758 C 355.20687 665.03924 355.17 665.06981 355.29102 664.94531 C 355.34088 664.894 355.36416 664.85142 355.37695 664.83008 z M 204.10938 729.46289 C 201.91268 734.77165 199.40731 740.30432 197.02344 744.58203 C 195.72565 746.91082 194.47261 748.89616 193.40625 750.29492 C 192.67444 751.25488 192.35729 751.42957 191.99609 751.72656 C 191.79941 750.64146 191.71093 748.65295 192.02539 745.45312 C 192.76033 737.97567 195.63095 733.6699 199.83594 731.03516 C 201.05431 730.27177 202.64833 729.94803 204.10938 729.46289 z M 304.84961 756.72461 C 311.00209 761.18479 316.02216 766.33534 317.66406 773.42188 C 319.85626 782.88347 318.19011 788.51496 315.33203 791.44141 C 312.47394 794.36789 308.08179 794.96973 303.72852 793.47852 C 299.37524 791.9873 295.2656 788.39228 293.42188 783.18945 C 291.57815 777.98663 291.88553 771.08497 296.75195 762.68164 C 298.58214 759.52128 301.44828 757.86312 304.84961 756.72461 z " transform="scale(0.26458333)" id="path8725"/> <g id="g8677" transform="rotate(-15,72.457146,352.19037)"> <rect transform="rotate(30)" ry="6.1316237" y="57.817989" x="169.03076" height="35.723373" width="13.469469" id="rect8567" style="color:#000000;clip-rule:nonzero;display:inline;overflow:visible;visibility:visible;opacity:1;isolation:auto;mix-blend-mode:normal;color-interpolation:sRGB;color-interpolation-filters:linearRGB;solid-color:#000000;solid-opacity:1;vector-effect:none;fill:#941f1f;fill-opacity:1;fill-rule:nonzero;stroke:none;stroke-width:5.29166651;stroke-linecap:butt;stroke-linejoin:miter;stroke-miterlimit:4;stroke-dasharray:none;stroke-dashoffset:0;stroke-opacity:1;color-rendering:auto;image-rendering:auto;shape-rendering:auto;text-rendering:auto;enable-background:accumulate"/> <path id="path8618" d="m 119.30139,136.84049 c -1.25531,0.0856 -2.46794,0.55838 -3.45767,1.36788 -0.18904,5.71093 0.11058,25.65838 0.11058,25.65838 2.03872,-0.97154 3.15233,-20.52023 3.34709,-27.02626 z" style="fill:#841c1c;fill-opacity:1;fill-rule:evenodd;stroke:none;stroke-width:0.26458332px;stroke-linecap:butt;stroke-linejoin:miter;stroke-opacity:1"/> <path id="rect8558" d="m 78.290699,117.23239 c 0.07897,0.60998 0.002,1.20559 5.64e-4,1.77044 v 44.17094 c 0,4.12943 3.544754,7.45381 7.947923,7.45381 h 21.782944 c 4.40317,0 7.94792,-3.32438 7.94792,-7.45381 v -44.17094 c -0.079,-0.61632 -0.0142,-1.19878 5.7e-4,-1.77044 1.5e-4,-6.35133 -8.43485,-13.08757 -18.83996,-13.08761 -10.405106,-3e-5 -18.840116,6.73628 -18.839961,13.08761 z" style="color:#000000;clip-rule:nonzero;display:inline;overflow:visible;visibility:visible;opacity:1;isolation:auto;mix-blend-mode:normal;color-interpolation:sRGB;color-interpolation-filters:linearRGB;solid-color:#000000;solid-opacity:1;vector-effect:none;fill:#ce6b5d;fill-opacity:1;fill-rule:nonzero;stroke:none;stroke-width:5.29166698;stroke-linecap:butt;stroke-linejoin:miter;stroke-miterlimit:4;stroke-dasharray:none;stroke-dashoffset:0;stroke-opacity:1;color-rendering:auto;image-rendering:auto;shape-rendering:auto;text-rendering:auto;enable-background:accumulate"/> <rect ry="4.8802423" y="166.99036" x="81.513885" height="9.7604847" width="31.233549" id="rect8569" style="color:#000000;clip-rule:nonzero;display:inline;overflow:visible;visibility:visible;opacity:1;isolation:auto;mix-blend-mode:normal;color-interpolation:sRGB;color-interpolation-filters:linearRGB;solid-color:#000000;solid-opacity:1;vector-effect:none;fill:#941f1f;fill-opacity:1;fill-rule:nonzero;stroke:none;stroke-width:5.29166651;stroke-linecap:butt;stroke-linejoin:miter;stroke-miterlimit:4;stroke-dasharray:none;stroke-dashoffset:0;stroke-opacity:1;color-rendering:auto;image-rendering:auto;shape-rendering:auto;text-rendering:auto;enable-background:accumulate"/> <g transform="translate(39.627565,1.1712572)" id="g8616"> <rect style="color:#000000;clip-rule:nonzero;display:inline;overflow:visible;visibility:visible;opacity:1;isolation:auto;mix-blend-mode:normal;color-interpolation:sRGB;color-interpolation-filters:linearRGB;solid-color:#000000;solid-opacity:1;vector-effect:none;fill:#ce6b5d;fill-opacity:1;fill-rule:nonzero;stroke:none;stroke-width:5.29166651;stroke-linecap:butt;stroke-linejoin:miter;stroke-miterlimit:4;stroke-dasharray:none;stroke-dashoffset:0;stroke-opacity:1;color-rendering:auto;image-rendering:auto;shape-rendering:auto;text-rendering:auto;enable-background:accumulate" id="rect8571" width="1.1712582" height="7.6131783" x="46.844646" y="166.89275" ry="0.58562911"/> <rect ry="0.58562911" y="166.89275" x="51.881054" height="7.6131783" width="1.1712582" id="rect8573" style="color:#000000;clip-rule:nonzero;display:inline;overflow:visible;visibility:visible;opacity:1;isolation:auto;mix-blend-mode:normal;color-interpolation:sRGB;color-interpolation-filters:linearRGB;solid-color:#000000;solid-opacity:1;vector-effect:none;fill:#ce6b5d;fill-opacity:1;fill-rule:nonzero;stroke:none;stroke-width:5.29166651;stroke-linecap:butt;stroke-linejoin:miter;stroke-miterlimit:4;stroke-dasharray:none;stroke-dashoffset:0;stroke-opacity:1;color-rendering:auto;image-rendering:auto;shape-rendering:auto;text-rendering:auto;enable-background:accumulate"/> <rect style="color:#000000;clip-rule:nonzero;display:inline;overflow:visible;visibility:visible;opacity:1;isolation:auto;mix-blend-mode:normal;color-interpolation:sRGB;color-interpolation-filters:linearRGB;solid-color:#000000;solid-opacity:1;vector-effect:none;fill:#ce6b5d;fill-opacity:1;fill-rule:nonzero;stroke:none;stroke-width:5.29166651;stroke-linecap:butt;stroke-linejoin:miter;stroke-miterlimit:4;stroke-dasharray:none;stroke-dashoffset:0;stroke-opacity:1;color-rendering:auto;image-rendering:auto;shape-rendering:auto;text-rendering:auto;enable-background:accumulate" id="rect8575" width="1.1712582" height="7.6131783" x="56.917465" y="166.89275" ry="0.58562911"/> <rect ry="0.58562911" y="166.89275" x="61.953873" height="7.6131783" width="1.1712582" id="rect8577" style="color:#000000;clip-rule:nonzero;display:inline;overflow:visible;visibility:visible;opacity:1;isolation:auto;mix-blend-mode:normal;color-interpolation:sRGB;color-interpolation-filters:linearRGB;solid-color:#000000;solid-opacity:1;vector-effect:none;fill:#ce6b5d;fill-opacity:1;fill-rule:nonzero;stroke:none;stroke-width:5.29166651;stroke-linecap:butt;stroke-linejoin:miter;stroke-miterlimit:4;stroke-dasharray:none;stroke-dashoffset:0;stroke-opacity:1;color-rendering:auto;image-rendering:auto;shape-rendering:auto;text-rendering:auto;enable-background:accumulate"/> <rect style="color:#000000;clip-rule:nonzero;display:inline;overflow:visible;visibility:visible;opacity:1;isolation:auto;mix-blend-mode:normal;color-interpolation:sRGB;color-interpolation-filters:linearRGB;solid-color:#000000;solid-opacity:1;vector-effect:none;fill:#ce6b5d;fill-opacity:1;fill-rule:nonzero;stroke:none;stroke-width:5.29166651;stroke-linecap:butt;stroke-linejoin:miter;stroke-miterlimit:4;stroke-dasharray:none;stroke-dashoffset:0;stroke-opacity:1;color-rendering:auto;image-rendering:auto;shape-rendering:auto;text-rendering:auto;enable-background:accumulate" id="rect8579" width="1.1712582" height="7.6131783" x="66.99028" y="166.89275" ry="0.58562911"/> <rect ry="0.58562911" y="166.89275" x="49.36285" height="7.6131783" width="1.1712582" id="rect8593" style="color:#000000;clip-rule:nonzero;display:inline;overflow:visible;visibility:visible;opacity:1;isolation:auto;mix-blend-mode:normal;color-interpolation:sRGB;color-interpolation-filters:linearRGB;solid-color:#000000;solid-opacity:1;vector-effect:none;fill:#ce6b5d;fill-opacity:1;fill-rule:nonzero;stroke:none;stroke-width:5.29166651;stroke-linecap:butt;stroke-linejoin:miter;stroke-miterlimit:4;stroke-dasharray:none;stroke-dashoffset:0;stroke-opacity:1;color-rendering:auto;image-rendering:auto;shape-rendering:auto;text-rendering:auto;enable-background:accumulate"/> <rect style="color:#000000;clip-rule:nonzero;display:inline;overflow:visible;visibility:visible;opacity:1;isolation:auto;mix-blend-mode:normal;color-interpolation:sRGB;color-interpolation-filters:linearRGB;solid-color:#000000;solid-opacity:1;vector-effect:none;fill:#ce6b5d;fill-opacity:1;fill-rule:nonzero;stroke:none;stroke-width:5.29166651;stroke-linecap:butt;stroke-linejoin:miter;stroke-miterlimit:4;stroke-dasharray:none;stroke-dashoffset:0;stroke-opacity:1;color-rendering:auto;image-rendering:auto;shape-rendering:auto;text-rendering:auto;enable-background:accumulate" id="rect8595" width="1.1712582" height="7.6131783" x="54.399258" y="166.89275" ry="0.58562911"/> <rect ry="0.58562911" y="166.89275" x="59.435669" height="7.6131783" width="1.1712582" id="rect8597" style="color:#000000;clip-rule:nonzero;display:inline;overflow:visible;visibility:visible;opacity:1;isolation:auto;mix-blend-mode:normal;color-interpolation:sRGB;color-interpolation-filters:linearRGB;solid-color:#000000;solid-opacity:1;vector-effect:none;fill:#ce6b5d;fill-opacity:1;fill-rule:nonzero;stroke:none;stroke-width:5.29166651;stroke-linecap:butt;stroke-linejoin:miter;stroke-miterlimit:4;stroke-dasharray:none;stroke-dashoffset:0;stroke-opacity:1;color-rendering:auto;image-rendering:auto;shape-rendering:auto;text-rendering:auto;enable-background:accumulate"/> <rect style="color:#000000;clip-rule:nonzero;display:inline;overflow:visible;visibility:visible;opacity:1;isolation:auto;mix-blend-mode:normal;color-interpolation:sRGB;color-interpolation-filters:linearRGB;solid-color:#000000;solid-opacity:1;vector-effect:none;fill:#ce6b5d;fill-opacity:1;fill-rule:nonzero;stroke:none;stroke-width:5.29166651;stroke-linecap:butt;stroke-linejoin:miter;stroke-miterlimit:4;stroke-dasharray:none;stroke-dashoffset:0;stroke-opacity:1;color-rendering:auto;image-rendering:auto;shape-rendering:auto;text-rendering:auto;enable-background:accumulate" id="rect8599" width="1.1712582" height="7.6131783" x="64.472076" y="166.89275" ry="0.58562911"/> <rect ry="0.58562911" y="166.89275" x="69.508484" height="7.6131783" width="1.1712582" id="rect8601" style="color:#000000;clip-rule:nonzero;display:inline;overflow:visible;visibility:visible;opacity:1;isolation:auto;mix-blend-mode:normal;color-interpolation:sRGB;color-interpolation-filters:linearRGB;solid-color:#000000;solid-opacity:1;vector-effect:none;fill:#ce6b5d;fill-opacity:1;fill-rule:nonzero;stroke:none;stroke-width:5.29166651;stroke-linecap:butt;stroke-linejoin:miter;stroke-miterlimit:4;stroke-dasharray:none;stroke-dashoffset:0;stroke-opacity:1;color-rendering:auto;image-rendering:auto;shape-rendering:auto;text-rendering:auto;enable-background:accumulate"/> <rect ry="0.58562911" y="166.89275" x="44.326443" height="7.6131783" width="1.1712582" id="rect8603" style="color:#000000;clip-rule:nonzero;display:inline;overflow:visible;visibility:visible;opacity:1;isolation:auto;mix-blend-mode:normal;color-interpolation:sRGB;color-interpolation-filters:linearRGB;solid-color:#000000;solid-opacity:1;vector-effect:none;fill:#ce6b5d;fill-opacity:1;fill-rule:nonzero;stroke:none;stroke-width:5.29166651;stroke-linecap:butt;stroke-linejoin:miter;stroke-miterlimit:4;stroke-dasharray:none;stroke-dashoffset:0;stroke-opacity:1;color-rendering:auto;image-rendering:auto;shape-rendering:auto;text-rendering:auto;enable-background:accumulate"/> </g> <path id="path8623" d="m 78.291263,124.69755 h 37.678787 v 25.37726 H 78.291263 Z" style="fill:#941f1f;fill-rule:evenodd;stroke:none;stroke-width:0.26458332px;stroke-linecap:butt;stroke-linejoin:miter;stroke-opacity:1"/> <path id="path8625" d="m 92.271893,127.18725 0.504232,2.58207 1.984223,1.72797 -0.504412,-2.58225 z m 9.655157,0 -1.98404,1.72779 -0.504233,2.58225 1.984043,-1.72797 z m -4.79649,0.71286 -1.631296,4.7512 1.631296,4.7514 1.631476,-4.7514 z m -6.719617,2.78334 2.20615,4.51328 4.513287,2.20615 -2.206149,-4.51328 z m 13.439417,0 -4.513291,2.20615 -2.206149,4.51328 4.51329,-2.20615 z m -15.888697,2.36446 1.727794,1.98422 2.582076,0.50424 -1.727793,-1.98405 z m 18.497177,0 -2.58225,0.50441 -1.72779,1.98405 2.58225,-0.50424 z m -14.079847,2.72385 -4.751387,1.6313 4.751387,1.6313 4.751208,-1.6313 z m 9.503307,0 -4.751201,1.6313 4.751201,1.6313 4.7514,-1.6313 z m -4.75192,1.63167 -4.513287,2.20614 -2.20615,4.51311 4.513288,-2.20614 z m 5.43e-4,0 2.206149,4.51311 4.513288,2.20614 -2.20615,-4.51311 z m -3.58e-4,1.7e-4 -1.631297,4.75122 1.631297,4.7512 1.631475,-4.7512 z m -4.859027,1.88952 -2.582077,0.50424 -1.727793,1.98404 2.582076,-0.50423 z m 9.877262,0.13568 1.7278,1.98404 2.58226,0.50441 -1.7278,-1.98404 z m -7.388448,3.71058 -1.984223,1.72779 -0.504232,2.58226 1.984043,-1.72779 z m 4.67843,0.13585 0.504231,2.58207 1.984047,1.7278 -0.50424,-2.58207 z" style="color:#000000;clip-rule:nonzero;display:inline;overflow:visible;visibility:visible;opacity:1;isolation:auto;mix-blend-mode:normal;color-interpolation:sRGB;color-interpolation-filters:linearRGB;solid-color:#000000;solid-opacity:1;vector-effect:none;fill:#ffefb9;fill-opacity:1;fill-rule:nonzero;stroke:none;stroke-width:5.29166698;stroke-linecap:butt;stroke-linejoin:miter;stroke-miterlimit:4;stroke-dasharray:none;stroke-dashoffset:0;stroke-opacity:1;color-rendering:auto;image-rendering:auto;shape-rendering:auto;text-rendering:auto;enable-background:accumulate"/> </g> <g transform="matrix(-0.86602541,-0.50000001,-0.50000001,0.86602541,274.32965,54.488366)" id="g8715"> <rect style="color:#000000;clip-rule:nonzero;display:inline;overflow:visible;visibility:visible;opacity:1;isolation:auto;mix-blend-mode:normal;color-interpolation:sRGB;color-interpolation-filters:linearRGB;solid-color:#000000;solid-opacity:1;vector-effect:none;fill:#941f1f;fill-opacity:1;fill-rule:nonzero;stroke:none;stroke-width:5.29166651;stroke-linecap:butt;stroke-linejoin:miter;stroke-miterlimit:4;stroke-dasharray:none;stroke-dashoffset:0;stroke-opacity:1;color-rendering:auto;image-rendering:auto;shape-rendering:auto;text-rendering:auto;enable-background:accumulate" id="rect8679" width="13.469469" height="35.723373" x="169.03076" y="57.817989" ry="6.1316237" transform="rotate(30)"/> <path style="fill:#841c1c;fill-opacity:1;fill-rule:evenodd;stroke:none;stroke-width:0.26458332px;stroke-linecap:butt;stroke-linejoin:miter;stroke-opacity:1" d="m 119.30139,136.84049 c -1.25531,0.0856 -2.46794,0.55838 -3.45767,1.36788 -0.18904,5.71093 0.11058,25.65838 0.11058,25.65838 2.03872,-0.97154 3.15233,-20.52023 3.34709,-27.02626 z" id="path8681"/> <path style="color:#000000;clip-rule:nonzero;display:inline;overflow:visible;visibility:visible;opacity:1;isolation:auto;mix-blend-mode:normal;color-interpolation:sRGB;color-interpolation-filters:linearRGB;solid-color:#000000;solid-opacity:1;vector-effect:none;fill:#ce6b5d;fill-opacity:1;fill-rule:nonzero;stroke:none;stroke-width:5.29166698;stroke-linecap:butt;stroke-linejoin:miter;stroke-miterlimit:4;stroke-dasharray:none;stroke-dashoffset:0;stroke-opacity:1;color-rendering:auto;image-rendering:auto;shape-rendering:auto;text-rendering:auto;enable-background:accumulate" d="m 78.290699,117.23239 c 0.07897,0.60998 0.002,1.20559 5.64e-4,1.77044 v 44.17094 c 0,4.12943 3.544754,7.45381 7.947923,7.45381 h 21.782944 c 4.40317,0 7.94792,-3.32438 7.94792,-7.45381 v -44.17094 c -0.079,-0.61632 -0.0142,-1.19878 5.7e-4,-1.77044 1.5e-4,-6.35133 -8.43485,-13.08757 -18.83996,-13.08761 -10.405106,-3e-5 -18.840116,6.73628 -18.839961,13.08761 z" id="path8683"/> <rect style="color:#000000;clip-rule:nonzero;display:inline;overflow:visible;visibility:visible;opacity:1;isolation:auto;mix-blend-mode:normal;color-interpolation:sRGB;color-interpolation-filters:linearRGB;solid-color:#000000;solid-opacity:1;vector-effect:none;fill:#941f1f;fill-opacity:1;fill-rule:nonzero;stroke:none;stroke-width:5.29166651;stroke-linecap:butt;stroke-linejoin:miter;stroke-miterlimit:4;stroke-dasharray:none;stroke-dashoffset:0;stroke-opacity:1;color-rendering:auto;image-rendering:auto;shape-rendering:auto;text-rendering:auto;enable-background:accumulate" id="rect8685" width="31.233549" height="9.7604847" x="81.513885" y="166.99036" ry="4.8802423"/> <g id="g8709" transform="translate(39.627565,1.1712572)"> <rect ry="0.58562911" y="166.89275" x="46.844646" height="7.6131783" width="1.1712582" id="rect8687" style="color:#000000;clip-rule:nonzero;display:inline;overflow:visible;visibility:visible;opacity:1;isolation:auto;mix-blend-mode:normal;color-interpolation:sRGB;color-interpolation-filters:linearRGB;solid-color:#000000;solid-opacity:1;vector-effect:none;fill:#ce6b5d;fill-opacity:1;fill-rule:nonzero;stroke:none;stroke-width:5.29166651;stroke-linecap:butt;stroke-linejoin:miter;stroke-miterlimit:4;stroke-dasharray:none;stroke-dashoffset:0;stroke-opacity:1;color-rendering:auto;image-rendering:auto;shape-rendering:auto;text-rendering:auto;enable-background:accumulate"/> <rect style="color:#000000;clip-rule:nonzero;display:inline;overflow:visible;visibility:visible;opacity:1;isolation:auto;mix-blend-mode:normal;color-interpolation:sRGB;color-interpolation-filters:linearRGB;solid-color:#000000;solid-opacity:1;vector-effect:none;fill:#ce6b5d;fill-opacity:1;fill-rule:nonzero;stroke:none;stroke-width:5.29166651;stroke-linecap:butt;stroke-linejoin:miter;stroke-miterlimit:4;stroke-dasharray:none;stroke-dashoffset:0;stroke-opacity:1;color-rendering:auto;image-rendering:auto;shape-rendering:auto;text-rendering:auto;enable-background:accumulate" id="rect8689" width="1.1712582" height="7.6131783" x="51.881054" y="166.89275" ry="0.58562911"/> <rect ry="0.58562911" y="166.89275" x="56.917465" height="7.6131783" width="1.1712582" id="rect8691" style="color:#000000;clip-rule:nonzero;display:inline;overflow:visible;visibility:visible;opacity:1;isolation:auto;mix-blend-mode:normal;color-interpolation:sRGB;color-interpolation-filters:linearRGB;solid-color:#000000;solid-opacity:1;vector-effect:none;fill:#ce6b5d;fill-opacity:1;fill-rule:nonzero;stroke:none;stroke-width:5.29166651;stroke-linecap:butt;stroke-linejoin:miter;stroke-miterlimit:4;stroke-dasharray:none;stroke-dashoffset:0;stroke-opacity:1;color-rendering:auto;image-rendering:auto;shape-rendering:auto;text-rendering:auto;enable-background:accumulate"/> <rect style="color:#000000;clip-rule:nonzero;display:inline;overflow:visible;visibility:visible;opacity:1;isolation:auto;mix-blend-mode:normal;color-interpolation:sRGB;color-interpolation-filters:linearRGB;solid-color:#000000;solid-opacity:1;vector-effect:none;fill:#ce6b5d;fill-opacity:1;fill-rule:nonzero;stroke:none;stroke-width:5.29166651;stroke-linecap:butt;stroke-linejoin:miter;stroke-miterlimit:4;stroke-dasharray:none;stroke-dashoffset:0;stroke-opacity:1;color-rendering:auto;image-rendering:auto;shape-rendering:auto;text-rendering:auto;enable-background:accumulate" id="rect8693" width="1.1712582" height="7.6131783" x="61.953873" y="166.89275" ry="0.58562911"/> <rect ry="0.58562911" y="166.89275" x="66.99028" height="7.6131783" width="1.1712582" id="rect8695" style="color:#000000;clip-rule:nonzero;display:inline;overflow:visible;visibility:visible;opacity:1;isolation:auto;mix-blend-mode:normal;color-interpolation:sRGB;color-interpolation-filters:linearRGB;solid-color:#000000;solid-opacity:1;vector-effect:none;fill:#ce6b5d;fill-opacity:1;fill-rule:nonzero;stroke:none;stroke-width:5.29166651;stroke-linecap:butt;stroke-linejoin:miter;stroke-miterlimit:4;stroke-dasharray:none;stroke-dashoffset:0;stroke-opacity:1;color-rendering:auto;image-rendering:auto;shape-rendering:auto;text-rendering:auto;enable-background:accumulate"/> <rect style="color:#000000;clip-rule:nonzero;display:inline;overflow:visible;visibility:visible;opacity:1;isolation:auto;mix-blend-mode:normal;color-interpolation:sRGB;color-interpolation-filters:linearRGB;solid-color:#000000;solid-opacity:1;vector-effect:none;fill:#ce6b5d;fill-opacity:1;fill-rule:nonzero;stroke:none;stroke-width:5.29166651;stroke-linecap:butt;stroke-linejoin:miter;stroke-miterlimit:4;stroke-dasharray:none;stroke-dashoffset:0;stroke-opacity:1;color-rendering:auto;image-rendering:auto;shape-rendering:auto;text-rendering:auto;enable-background:accumulate" id="rect8697" width="1.1712582" height="7.6131783" x="49.36285" y="166.89275" ry="0.58562911"/> <rect ry="0.58562911" y="166.89275" x="54.399258" height="7.6131783" width="1.1712582" id="rect8699" style="color:#000000;clip-rule:nonzero;display:inline;overflow:visible;visibility:visible;opacity:1;isolation:auto;mix-blend-mode:normal;color-interpolation:sRGB;color-interpolation-filters:linearRGB;solid-color:#000000;solid-opacity:1;vector-effect:none;fill:#ce6b5d;fill-opacity:1;fill-rule:nonzero;stroke:none;stroke-width:5.29166651;stroke-linecap:butt;stroke-linejoin:miter;stroke-miterlimit:4;stroke-dasharray:none;stroke-dashoffset:0;stroke-opacity:1;color-rendering:auto;image-rendering:auto;shape-rendering:auto;text-rendering:auto;enable-background:accumulate"/> <rect style="color:#000000;clip-rule:nonzero;display:inline;overflow:visible;visibility:visible;opacity:1;isolation:auto;mix-blend-mode:normal;color-interpolation:sRGB;color-interpolation-filters:linearRGB;solid-color:#000000;solid-opacity:1;vector-effect:none;fill:#ce6b5d;fill-opacity:1;fill-rule:nonzero;stroke:none;stroke-width:5.29166651;stroke-linecap:butt;stroke-linejoin:miter;stroke-miterlimit:4;stroke-dasharray:none;stroke-dashoffset:0;stroke-opacity:1;color-rendering:auto;image-rendering:auto;shape-rendering:auto;text-rendering:auto;enable-background:accumulate" id="rect8701" width="1.1712582" height="7.6131783" x="59.435669" y="166.89275" ry="0.58562911"/> <rect ry="0.58562911" y="166.89275" x="64.472076" height="7.6131783" width="1.1712582" id="rect8703" style="color:#000000;clip-rule:nonzero;display:inline;overflow:visible;visibility:visible;opacity:1;isolation:auto;mix-blend-mode:normal;color-interpolation:sRGB;color-interpolation-filters:linearRGB;solid-color:#000000;solid-opacity:1;vector-effect:none;fill:#ce6b5d;fill-opacity:1;fill-rule:nonzero;stroke:none;stroke-width:5.29166651;stroke-linecap:butt;stroke-linejoin:miter;stroke-miterlimit:4;stroke-dasharray:none;stroke-dashoffset:0;stroke-opacity:1;color-rendering:auto;image-rendering:auto;shape-rendering:auto;text-rendering:auto;enable-background:accumulate"/> <rect style="color:#000000;clip-rule:nonzero;display:inline;overflow:visible;visibility:visible;opacity:1;isolation:auto;mix-blend-mode:normal;color-interpolation:sRGB;color-interpolation-filters:linearRGB;solid-color:#000000;solid-opacity:1;vector-effect:none;fill:#ce6b5d;fill-opacity:1;fill-rule:nonzero;stroke:none;stroke-width:5.29166651;stroke-linecap:butt;stroke-linejoin:miter;stroke-miterlimit:4;stroke-dasharray:none;stroke-dashoffset:0;stroke-opacity:1;color-rendering:auto;image-rendering:auto;shape-rendering:auto;text-rendering:auto;enable-background:accumulate" id="rect8705" width="1.1712582" height="7.6131783" x="69.508484" y="166.89275" ry="0.58562911"/> <rect style="color:#000000;clip-rule:nonzero;display:inline;overflow:visible;visibility:visible;opacity:1;isolation:auto;mix-blend-mode:normal;color-interpolation:sRGB;color-interpolation-filters:linearRGB;solid-color:#000000;solid-opacity:1;vector-effect:none;fill:#ce6b5d;fill-opacity:1;fill-rule:nonzero;stroke:none;stroke-width:5.29166651;stroke-linecap:butt;stroke-linejoin:miter;stroke-miterlimit:4;stroke-dasharray:none;stroke-dashoffset:0;stroke-opacity:1;color-rendering:auto;image-rendering:auto;shape-rendering:auto;text-rendering:auto;enable-background:accumulate" id="rect8707" width="1.1712582" height="7.6131783" x="44.326443" y="166.89275" ry="0.58562911"/> </g> <path style="fill:#941f1f;fill-rule:evenodd;stroke:none;stroke-width:0.26458332px;stroke-linecap:butt;stroke-linejoin:miter;stroke-opacity:1" d="m 78.291263,124.69755 h 37.678787 v 25.37726 H 78.291263 Z" id="path8711"/> <path style="color:#000000;clip-rule:nonzero;display:inline;overflow:visible;visibility:visible;opacity:1;isolation:auto;mix-blend-mode:normal;color-interpolation:sRGB;color-interpolation-filters:linearRGB;solid-color:#000000;solid-opacity:1;vector-effect:none;fill:#ffefb9;fill-opacity:1;fill-rule:nonzero;stroke:none;stroke-width:5.29166698;stroke-linecap:butt;stroke-linejoin:miter;stroke-miterlimit:4;stroke-dasharray:none;stroke-dashoffset:0;stroke-opacity:1;color-rendering:auto;image-rendering:auto;shape-rendering:auto;text-rendering:auto;enable-background:accumulate" d="m 92.271893,127.18725 0.504232,2.58207 1.984223,1.72797 -0.504412,-2.58225 z m 9.655157,0 -1.98404,1.72779 -0.504233,2.58225 1.984043,-1.72797 z m -4.79649,0.71286 -1.631296,4.7512 1.631296,4.7514 1.631476,-4.7514 z m -6.719617,2.78334 2.20615,4.51328 4.513287,2.20615 -2.206149,-4.51328 z m 13.439417,0 -4.513291,2.20615 -2.206149,4.51328 4.51329,-2.20615 z m -15.888697,2.36446 1.727794,1.98422 2.582076,0.50424 -1.727793,-1.98405 z m 18.497177,0 -2.58225,0.50441 -1.72779,1.98405 2.58225,-0.50424 z m -14.079847,2.72385 -4.751387,1.6313 4.751387,1.6313 4.751208,-1.6313 z m 9.503307,0 -4.751201,1.6313 4.751201,1.6313 4.7514,-1.6313 z m -4.75192,1.63167 -4.513287,2.20614 -2.20615,4.51311 4.513288,-2.20614 z m 5.43e-4,0 2.206149,4.51311 4.513288,2.20614 -2.20615,-4.51311 z m -3.58e-4,1.7e-4 -1.631297,4.75122 1.631297,4.7512 1.631475,-4.7512 z m -4.859027,1.88952 -2.582077,0.50424 -1.727793,1.98404 2.582076,-0.50423 z m 9.877262,0.13568 1.7278,1.98404 2.58226,0.50441 -1.7278,-1.98404 z m -7.388448,3.71058 -1.984223,1.72779 -0.504232,2.58226 1.984043,-1.72779 z m 4.67843,0.13585 0.504231,2.58207 1.984047,1.7278 -0.50424,-2.58207 z" id="path8713"/> </g> </g> </svg>